<svg id="AXA_Logo" data-name="AXA Logo" xmlns="http://www.w3.org/2000/svg" viewBox="0 0 283.47 283.47"><defs><style>.cls-1{fill:none;}</style></defs><title>axa_logo_solid_black_rgb</title><path d="M77.3,177.44a30.23,30.23,0,0,1-.56-7.4c0-.35-.07-.91-.4-.19-3,6.53-20.91,28.3-20.91,28.3H83.74S78.26,181.24,77.3,177.44Z"/><path d="M126.76,225.13c-.72-.77-5.11-14.08-5.11-14.08l-7.53,9.77,4.85,15Z"/><path d="M186.07,177.44a30.23,30.23,0,0,1-.56-7.4c0-.35-.06-.91-.4-.19-3,6.53-20.91,28.3-20.91,28.3h28.31S187,181.24,186.07,177.44Z"/><path d="M175.66,140H159.38L267.54,0H0V247.17a5.93,5.93,0,0,1,.49-.48c.39-.28,18.21-22.41,34.59-44.23,14.72-19,28.53-37.53,29.74-39.3C67.75,158.9,72,149.7,72,149.7H93.76s.67,8.47,1.31,10.52c.57,1.82,13.84,45.36,14.15,45.83l7.34-9.39L104,158.05s-2.94-7.27-3.9-8.35h25.44a22.16,22.16,0,0,0,.83,6.92c1,3.18,6.49,22.87,6.49,22.87s17.35-21.75,18.37-23.32a14.1,14.1,0,0,0,2.14-6.47h21.2s-3.88,2.84-10.68,11.44l-24.67,31.35s2,6.66,2.91,10c.26,1,.44,1.6.44,1.66s.49-.58,1.34-1.66c5.78-7.32,32.05-41.77,33.64-44.72,1.28-2.38,3.17-5.09,4.28-8h20.68s.48,6.18,1.11,7.89l12.95,44.88c4.94,13.82,15.12,49.79,19.17,52.66H209a44.57,44.57,0,0,0-1.25-9.43c-1.15-4.11-10.82-35.22-10.82-35.22H154.51l-6.67,9.46s8,25.1,8.52,26.33c.86,2.22,4.69,8.86,4.69,8.86H135.42s-.66-3.83-.91-5.43c-.2-1.29-2.43-8.35-2.43-8.35s-5.81,6.36-7.39,9.31-2.31,4.47-2.31,4.47h-20s-.67-3.83-.92-5.43c-.2-1.29-2.65-8.92-2.65-8.92s-5.61,6.81-7.21,9.76-2.27,4.59-2.27,4.59H69.49s5.6-5.33,7.56-7.62c3.3-3.88,15.6-20,15.6-20l-4.93-17.07H45.59s-24,31.57-25,32.54-8,11-8.12,12.1H0v28.35H283.47V0h0Z"/><polygon class="cls-1" points="283.47 0 267.54 0 267.54 0 283.46 0 283.47 0"/><polygon class="cls-1" points="0 247.17 0 255.12 0 255.12 0 247.17 0 247.17"/></svg>